<svg class="svg-icon" style="width: 1em; height: 1em;vertical-align: middle;fill: white;overflow: hidden;" viewBox="0 0 1024 1024" version="1.1" xmlns="http://www.w3.org/2000/svg"><path d="M512 552c-6.1 0-12.3-1.4-17.9-4.2l-460-230C20.6 311 12 297.2 12 282s8.6-29 22.1-35.8l460-230c11.3-5.6 24.5-5.6 35.8 0l460 230c13.6 6.8 22.1 20.6 22.1 35.8s-8.6 29-22.1 35.8l-460 230c-5.6 2.8-11.8 4.2-17.9 4.2zM141.4 282L512 467.3 882.6 282 512 96.7 141.4 282zM512 1012c-6.1 0-12.3-1.4-17.9-4.2l-460-230c-19.8-9.9-27.8-33.9-17.9-53.7 9.9-19.8 33.9-27.8 53.7-17.9L512 927.3l442.1-221.1c19.8-9.9 43.8-1.9 53.7 17.9 9.9 19.8 1.9 43.8-17.9 53.7l-460 230c-5.6 2.8-11.8 4.2-17.9 4.2z" fill="white" /><path d="M512 782c-6.1 0-12.3-1.4-17.9-4.2l-460-230c-19.8-9.9-27.8-33.9-17.9-53.7 9.9-19.8 33.9-27.8 53.7-17.9L512 697.3l442.1-221.1c19.8-9.9 43.8-1.9 53.7 17.9 9.9 19.8 1.9 43.8-17.9 53.7l-460 230c-5.6 2.8-11.8 4.2-17.9 4.2z" fill="white" /></svg>